<svg xmlns="http://www.w3.org/2000/svg" xmlns:xlink="http://www.w3.org/1999/xlink" width="494" height="508"><defs><linearGradient id="E" x1="38.152%" x2="41.989%" y1="78.776%" y2="102.32%"><stop offset="0%" stop-color="#55739C"/><stop offset="100%" stop-color="#4179D5"/></linearGradient><linearGradient id="ad" x1="50%" x2="50%" y1="0%" y2="100%"><stop offset="0%" stop-color="#0091FF" stop-opacity="0"/><stop offset="0%" stop-color="#0092FF" stop-opacity=".65"/><stop offset="100%" stop-color="#00C4FF"/></linearGradient><linearGradient id="d" x1="45.341%" x2="48.408%" y1="6.036%" y2="81.515%"><stop offset="0%" stop-color="#76E1FF"/><stop offset="100%" stop-color="#637BFF" stop-opacity="0"/></linearGradient><linearGradient id="e" x1="0%" y1="50%" y2="50%"><stop offset="0%" stop-color="#5B79A2"/><stop offset="100%" stop-color="#2E4469"/></linearGradient><linearGradient id="f" x1="85.355%" x2="14.645%" y1="72.293%" y2="27.707%"><stop offset="0%" stop-color="#2F4568"/><stop offset="100%" stop-color="#18222F"/></linearGradient><linearGradient id="g" x1="50%" x2="50%" y1="-48.381%" y2="62.836%"><stop offset="0%" stop-color="#76E1FF"/><stop offset="100%" stop-color="#637BFF" stop-opacity="0"/></linearGradient><linearGradient id="i" x1="45.461%" x2="3.524%" y1="168.048%" y2="5.569%"><stop offset="0%" stop-color="#C4D6EB" stop-opacity=".676"/><stop offset="100%" stop-color="#91ACD2" stop-opacity=".3"/></linearGradient><linearGradient id="j" x1="39.283%" x2="18.637%" y1="81.515%" y2="6.036%"><stop offset="0%" stop-color="#76E1FF"/><stop offset="100%" stop-color="#637BFF" stop-opacity="0"/></linearGradient><linearGradient id="k" x1="0%" y1="50%" y2="50%"><stop offset="0%" stop-color="#5B79A2"/><stop offset="100%" stop-color="#2E4469"/></linearGradient><linearGradient id="p" x1="66.968%" x2="24.335%" y1="0%" y2="100%"><stop offset="0%" stop-color="#476698"/><stop offset="100%" stop-color="#253652"/></linearGradient><linearGradient id="q" x1="50%" x2="50%" y1="149.484%" y2="0%"><stop offset="0%" stop-color="#5B79A2"/><stop offset="100%" stop-color="#2E4469"/></linearGradient><linearGradient id="r" x1="30.414%" x2="50%" y1="31.624%" y2="68.376%"><stop offset="0%" stop-color="#5B79A2"/><stop offset="100%" stop-color="#2E4469"/></linearGradient><linearGradient id="u" x1="46.014%" x2="55.51%" y1="2.256%" y2="100%"><stop offset="0%" stop-color="#374F73"/><stop offset="100%" stop-color="#253652"/></linearGradient><linearGradient id="x" x1="98.741%" x2="1.259%" y1="48.741%" y2="48.741%"><stop offset="0%" stop-color="#21C8F6"/><stop offset="100%" stop-color="#637BFF"/></linearGradient><linearGradient id="y" x1="34.594%" x2="60.398%" y1="40.953%" y2="55.694%"><stop offset="0%" stop-color="#5B79A2"/><stop offset="100%" stop-color="#2E4469"/></linearGradient><linearGradient id="z" x1="0%" y1="50%" y2="50%"><stop offset="0%" stop-color="#6F90BC"/><stop offset="100%" stop-color="#2E4469"/></linearGradient><linearGradient id="B" x1="75.874%" x2="92.229%" y1="34.347%" y2="96.254%"><stop offset="0%" stop-color="#5B79A2"/><stop offset="100%" stop-color="#2E4469"/></linearGradient><linearGradient id="c" x1="39.281%" x2="46.338%" y1="6.036%" y2="81.515%"><stop offset="0%" stop-color="#76E1FF"/><stop offset="100%" stop-color="#637BFF" stop-opacity="0"/></linearGradient><linearGradient id="F" x1="31.613%" x2="60.933%" y1="-68.49%" y2="79.159%"><stop offset="0%" stop-color="#25C2F2"/><stop offset="100%" stop-color="#293F64"/></linearGradient><linearGradient id="G" x1="1.259%" x2="98.741%" y1="48.741%" y2="48.741%"><stop offset="0%" stop-color="#21C8F6"/><stop offset="100%" stop-color="#637BFF"/></linearGradient><linearGradient id="aw" x1="5.642%" x2="85.873%" y1="100%" y2="17.544%"><stop offset="0%" stop-color="#61E4FF"/><stop offset="100%" stop-color="#32C5FF" stop-opacity="0"/></linearGradient><linearGradient id="J" x1="50%" x2="50%" y1="108%" y2="-31.193%"><stop offset="0%" stop-color="#25C2F2" stop-opacity=".22"/><stop offset="100%" stop-color="#293F64"/></linearGradient><linearGradient id="as" x1="0%" x2="90.436%" y1="50.817%" y2="49.47%"><stop offset="0%" stop-color="#61E4FF"/><stop offset="100%" stop-color="#32C5FF" stop-opacity="0"/></linearGradient><linearGradient id="M" x1="154.902%" x2="24.379%" y1="138.188%" y2="14.184%"><stop offset="0%" stop-color="#76E1FF"/><stop offset="100%" stop-color="#637BFF" stop-opacity="0"/></linearGradient><linearGradient id="N" x1="13.96%" x2="105.629%" y1=".616%" y2="98.781%"><stop offset="0%" stop-color="#587CB9"/><stop offset="100%" stop-color="#2E4469" stop-opacity="0"/></linearGradient><linearGradient id="R" x1="98.741%" x2="1.259%" y1="48.741%" y2="48.741%"><stop offset="0%" stop-color="#21C8F6"/><stop offset="100%" stop-color="#637BFF"/></linearGradient><linearGradient id="ap" x1="11.869%" x2="90.436%" y1="53.32%" y2="47.845%"><stop offset="0%" stop-color="#32C5FF" stop-opacity="0"/><stop offset="100%" stop-color="#61E4FF"/></linearGradient><linearGradient id="b" x1="46.338%" x2="39.281%" y1="81.515%" y2="6.036%"><stop offset="0%" stop-color="#76E1FF"/><stop offset="100%" stop-color="#637BFF" stop-opacity="0"/></linearGradient><linearGradient id="am" x1="-3.354%" x2="78.41%" y1="42.584%" y2="64.539%"><stop offset="0%" stop-color="#32C5FF" stop-opacity="0"/><stop offset="100%" stop-color="#61E4FF"/></linearGradient><linearGradient id="X" x1="98.741%" x2="1.259%" y1="48.741%" y2="48.741%"><stop offset="0%" stop-color="#21C8F6"/><stop offset="100%" stop-color="#637BFF"/></linearGradient><linearGradient id="ai" x1="50%" x2="50%" y1="0%" y2="100%"><stop offset="0%" stop-color="#5B79A2"/><stop offset="100%" stop-color="#2E4469"/></linearGradient><linearGradient id="Y" x1="98.741%" x2="1.259%" y1="48.741%" y2="48.741%"><stop offset="0%" stop-color="#21C8F6"/><stop offset="100%" stop-color="#637BFF"/></linearGradient><linearGradient id="ah" x1="30.085%" x2="92.09%" y1="41.926%" y2="56.661%"><stop offset="0%" stop-color="#5F80AB"/><stop offset="100%" stop-color="#293F64"/></linearGradient><linearGradient id="ac" x1="52.788%" x2="50%" y1="33.134%" y2="59.284%"><stop offset="0%" stop-color="#21C8F6" stop-opacity="0"/><stop offset="100%" stop-color="#637BFF"/></linearGradient><filter id="a" width="155.1%" height="162.9%" x="-27.6%" y="-31.4%" filterUnits="objectBoundingBox"><feGaussianBlur in="SourceGraphic" stdDeviation="35"/></filter><filter id="aD" width="152%" height="219.7%" x="-25.5%" y="-60.1%" filterUnits="objectBoundingBox"><feMorphology in="SourceAlpha" operator="dilate" radius="1.29" result="shadowSpreadOuter1"/><feOffset in="shadowSpreadOuter1" result="shadowOffsetOuter1"/><feMorphology in="SourceAlpha" radius="1.29" result="shadowInner"/><feOffset in="shadowInner" result="shadowInner"/><feComposite in="shadowOffsetOuter1" in2="shadowInner" operator="out" result="shadowOffsetOuter1"/><feGaussianBlur in="shadowOffsetOuter1" result="shadowBlurOuter1" stdDeviation="9"/><feColorMatrix in="shadowBlurOuter1" values="0 0 0 0 0.152877287 0 0 0 0 0.760326257 0 0 0 0 1 0 0 0 1 0"/></filter><filter id="an" width="127.2%" height="205.7%" x="-13.6%" y="-52.9%" filterUnits="objectBoundingBox"><feMorphology in="SourceAlpha" operator="dilate" radius=".921" result="shadowSpreadOuter1"/><feOffset in="shadowSpreadOuter1" result="shadowOffsetOuter1"/><feMorphology in="SourceAlpha" radius="1" result="shadowInner"/><feOffset in="shadowInner" result="shadowInner"/><feComposite in="shadowOffsetOuter1" in2="shadowInner" operator="out" result="shadowOffsetOuter1"/><feGaussianBlur in="shadowOffsetOuter1" result="shadowBlurOuter1" stdDeviation="9"/><feColorMatrix in="shadowBlurOuter1" values="0 0 0 0 0.152877287 0 0 0 0 0.760326257 0 0 0 0 1 0 0 0 1 0"/></filter><filter id="ax" width="184.9%" height="372.7%" x="-42.5%" y="-136.4%" filterUnits="objectBoundingBox"><feGaussianBlur in="SourceGraphic" stdDeviation="27.645"/></filter><filter id="az" width="164.3%" height="148.4%" x="-32.1%" y="-24.7%" filterUnits="objectBoundingBox"><feMorphology in="SourceAlpha" operator="dilate" radius="1.29" result="shadowSpreadOuter1"/><feOffset in="shadowSpreadOuter1" result="shadowOffsetOuter1"/><feMorphology in="SourceAlpha" radius="1.29" result="shadowInner"/><feOffset in="shadowInner" result="shadowInner"/><feComposite in="shadowOffsetOuter1" in2="shadowInner" operator="out" result="shadowOffsetOuter1"/><feGaussianBlur in="shadowOffsetOuter1" result="shadowBlurOuter1" stdDeviation="9"/><feColorMatrix in="shadowBlurOuter1" values="0 0 0 0 0.152877287 0 0 0 0 0.760326257 0 0 0 0 1 0 0 0 1 0"/></filter><filter id="C" width="180%" height="180%" x="-40%" y="-40%" filterUnits="objectBoundingBox"><feGaussianBlur in="SourceGraphic" stdDeviation="5.529"/></filter><filter id="P" width="164.8%" height="727.6%" x="-32.4%" y="-217.2%" filterUnits="objectBoundingBox"><feOffset dy="6" in="SourceAlpha" result="shadowOffsetOuter1"/><feGaussianBlur in="shadowOffsetOuter1" result="shadowBlurOuter1" stdDeviation="5.5"/><feColorMatrix in="shadowBlurOuter1" values="0 0 0 0 0.0115609217 0 0 0 0 0.467910214 0 0 0 0 1 0 0 0 1 0"/></filter><filter id="au" width="196%" height="190.4%" x="-48%" y="-45.2%" filterUnits="objectBoundingBox"><feMorphology in="SourceAlpha" operator="dilate" radius=".921" result="shadowSpreadOuter1"/><feOffset in="shadowSpreadOuter1" result="shadowOffsetOuter1"/><feMorphology in="SourceAlpha" radius="1" result="shadowInner"/><feOffset in="shadowInner" result="shadowInner"/><feComposite in="shadowOffsetOuter1" in2="shadowInner" operator="out" result="shadowOffsetOuter1"/><feGaussianBlur in="shadowOffsetOuter1" result="shadowBlurOuter1" stdDeviation="9"/><feColorMatrix in="shadowBlurOuter1" values="0 0 0 0 0.152877287 0 0 0 0 0.760326257 0 0 0 0 1 0 0 0 1 0"/></filter><filter id="ak" width="144%" height="178.8%" x="-22%" y="-39.4%" filterUnits="objectBoundingBox"><feMorphology in="SourceAlpha" operator="dilate" radius=".921" result="shadowSpreadOuter1"/><feOffset in="shadowSpreadOuter1" result="shadowOffsetOuter1"/><feMorphology in="SourceAlpha" radius="1" result="shadowInner"/><feOffset in="shadowInner" result="shadowInner"/><feComposite in="shadowOffsetOuter1" in2="shadowInner" operator="out" result="shadowOffsetOuter1"/><feGaussianBlur in="shadowOffsetOuter1" result="shadowBlurOuter1" stdDeviation="9"/><feColorMatrix in="shadowBlurOuter1" values="0 0 0 0 0.152877287 0 0 0 0 0.760326257 0 0 0 0 1 0 0 0 1 0"/></filter><filter id="T" width="164.8%" height="727.6%" x="-32.4%" y="-217.2%" filterUnits="objectBoundingBox"><feOffset dy="6" in="SourceAlpha" result="shadowOffsetOuter1"/><feGaussianBlur in="shadowOffsetOuter1" result="shadowBlurOuter1" stdDeviation="5.5"/><feColorMatrix in="shadowBlurOuter1" values="0 0 0 0 0.0115609217 0 0 0 0 0.467910214 0 0 0 0 1 0 0 0 1 0"/></filter><filter id="t" width="100%" height="100%" x="0%" y="0%" filterUnits="objectBoundingBox"><feGaussianBlur in="SourceGraphic"/></filter><filter id="aB" width="164.5%" height="175.6%" x="-32.2%" y="-37.8%" filterUnits="objectBoundingBox"><feMorphology in="SourceAlpha" operator="dilate" radius="1.29" result="shadowSpreadOuter1"/><feOffset in="shadowSpreadOuter1" result="shadowOffsetOuter1"/><feMorphology in="SourceAlpha" radius="1.29" result="shadowInner"/><feOffset in="shadowInner" result="shadowInner"/><feComposite in="shadowOffsetOuter1" in2="shadowInner" operator="out" result="shadowOffsetOuter1"/><feGaussianBlur in="shadowOffsetOuter1" result="shadowBlurOuter1" stdDeviation="9"/><feColorMatrix in="shadowBlurOuter1" values="0 0 0 0 0.152877287 0 0 0 0 0.760326257 0 0 0 0 1 0 0 0 1 0"/></filter><filter id="aF" width="157.1%" height="230.7%" x="-28.3%" y="-65.9%" filterUnits="objectBoundingBox"><feMorphology in="SourceAlpha" operator="dilate" radius="1.29" result="shadowSpreadOuter1"/><feOffset in="shadowSpreadOuter1" result="shadowOffsetOuter1"/><feMorphology in="SourceAlpha" radius="1.29" result="shadowInner"/><feOffset in="shadowInner" result="shadowInner"/><feComposite in="shadowOffsetOuter1" in2="shadowInner" operator="out" result="shadowOffsetOuter1"/><feGaussianBlur in="shadowOffsetOuter1" result="shadowBlurOuter1" stdDeviation="9"/><feColorMatrix in="shadowBlurOuter1" values="0 0 0 0 0.152877287 0 0 0 0 0.760326257 0 0 0 0 1 0 0 0 1 0"/></filter><filter id="ay" width="233.1%" height="233.1%" x="-66.6%" y="-66.6%" filterUnits="objectBoundingBox"><feGaussianBlur in="SourceGraphic" stdDeviation="35.938"/></filter><filter id="aq" width="138.9%" height="404.5%" x="-19.5%" y="-152.2%" filterUnits="objectBoundingBox"><feMorphology in="SourceAlpha" operator="dilate" radius=".921" result="shadowSpreadOuter1"/><feOffset in="shadowSpreadOuter1" result="shadowOffsetOuter1"/><feMorphology in="SourceAlpha" radius="1" result="shadowInner"/><feOffset in="shadowInner" result="shadowInner"/><feComposite in="shadowOffsetOuter1" in2="shadowInner" operator="out" result="shadowOffsetOuter1"/><feGaussianBlur in="shadowOffsetOuter1" result="shadowBlurOuter1" stdDeviation="9"/><feColorMatrix in="shadowBlurOuter1" values="0 0 0 0 0.152877287 0 0 0 0 0.760326257 0 0 0 0 1 0 0 0 1 0"/></filter><filter id="v" width="150.5%" height="1093.2%" x="-25.2%" y="-438.2%" filterUnits="objectBoundingBox"><feOffset dy="3" in="SourceAlpha" result="shadowOffsetOuter1"/><feGaussianBlur in="shadowOffsetOuter1" result="shadowBlurOuter1" stdDeviation="8"/><feColorMatrix in="shadowBlurOuter1" values="0 0 0 0 0.0115609217 0 0 0 0 0.467910214 0 0 0 0 1 0 0 0 1 0"/></filter><filter id="aH" width="195.7%" height="151.7%" x="-69.6%" y="-38.1%" filterUnits="objectBoundingBox"><feMorphology in="SourceAlpha" operator="dilate" radius="1.29" result="shadowSpreadOuter1"/><feOffset in="shadowSpreadOuter1" result="shadowOffsetOuter1"/><feGaussianBlur in="shadowOffsetOuter1" result="shadowBlurOuter1" stdDeviation="9"/><feComposite in="shadowBlurOuter1" in2="SourceAlpha" operator="out" result="shadowBlurOuter1"/><feColorMatrix in="shadowBlurOuter1" values="0 0 0 0 0.152877287 0 0 0 0 0.760326257 0 0 0 0 1 0 0 0 1 0"/></filter><filter id="af" width="115.3%" height="271%" x="-7.7%" y="-85.5%" filterUnits="objectBoundingBox"><feGaussianBlur in="SourceGraphic" stdDeviation="10.242"/></filter><path id="I" d="M12.68 0h67.14C86.822 0 92.5 5.677 92.5 12.68v53.848a12.68 12.68 0 01-8.074 11.813c-7.998 3.118-20.193 4.677-36.588 4.677-17.381 0-30.62-1.753-39.718-5.258A12.68 12.68 0 010 65.93V12.68C0 5.677 5.677 0 12.68 0z"/><path id="aG" d="M0 43.724l54-1.844L100.075.007"/><path id="al" d="M234.724 80.17h-71.907V44.026h-54.991V9.321"/><path id="U" d="M44.27 54.97h53.96a3.107 3.107 0 110 6.214H44.27a3.107 3.107 0 110-6.214z"/><path id="Q" d="M43.456 37.183h53.96a3.107 3.107 0 010 6.214H43.455a3.107 3.107 0 110-6.214z"/><path id="ao" d="M234.724 80.17v20.422h-38.828v10.91H59.516v21.492h-29.8"/><path id="L" d="M12.68 0h67.14C86.822 0 92.5 5.677 92.5 12.68v53.848a12.68 12.68 0 01-8.074 11.813c-7.998 3.118-20.193 4.677-36.588 4.677-17.381 0-30.62-1.753-39.718-5.258A12.68 12.68 0 010 65.93V12.68C0 5.677 5.677 0 12.68 0z"/><path id="K" d="M12.68 0h67.14C86.822 0 92.5 5.677 92.5 12.68v53.848a12.68 12.68 0 01-8.074 11.813c-7.998 3.118-20.193 4.677-36.588 4.677-17.381 0-30.62-1.753-39.718-5.258A12.68 12.68 0 010 65.93V12.68C0 5.677 5.677 0 12.68 0z"/><path id="ar" d="M234.724 80.17h28.38l13.452-18.341h101.64"/><path id="aI" d="M54 40.652l38.813 70.85"/><path id="av" d="M234.724 80.17V52.02h7.262V29.794h50.925v-11.4"/><path id="w" d="M55.27 103.186h95.882a2.567 2.567 0 110 5.135H55.27a2.567 2.567 0 110-5.135z"/><path id="aA" d="M51.235 0L0 43.724l36.896 72.7a.922.922 0 001.403.298l50.705-41.258L51.235 0z"/><path id="aC" d="M51.235 0h48.878l41.43 70.344-52.54 4.551z"/><path id="n" d="M85.966 52.95c-.616.217-1.136.598-1.563 1.023-.292.292-.54.605-.745.9-.484.701-.723 1.305-.723 1.305s.167.028.458.092c1.116.245 4.06 1.02 6.411 2.757a9.9 9.9 0 011.328 1.168s1.687-2.747 1.977-4.756c.098-.678.036-1.273-.303-1.649-.613-.68-1.621-.396-2.306-.016-1.515.842-2.942 2.73-2.942 2.73s.38-3.635-1.162-3.635a1.3 1.3 0 00-.43.081"/><path id="aE" d="M41.134 117.138l52.277-5.372 47.065-40.327a.46.46 0 00-.334-.81l-51.038 3.81-48.659 41.078a.921.921 0 00.69 1.621z"/><path id="l" d="M60.772 55.267s-1.664-2.538-3.335-3.242c-.503-.211-1.006-.258-1.464-.02-.615.32-.754 1.082-.653 1.984.226 2.01 1.646 4.71 1.646 4.71.28-.26.577-.5.886-.723 2.542-1.836 5.882-2.471 7.091-2.65.294-.043.463-.06.463-.06s-.163-.506-.518-1.144a6.674 6.674 0 00-.803-1.158c-.398-.455-.892-.87-1.493-1.13a1.242 1.242 0 00-.49-.114c-1.467 0-1.33 3.547-1.33 3.547"/><radialGradient id="H" cx="43.496%" cy="117.006%" r="68.68%" fx="43.496%" fy="117.006%" gradientTransform="matrix(.0947 -.97562 .73984 .38561 -.472 1.143)"><stop offset="0%" stop-color="#25C2F2"/><stop offset="100%" stop-color="#293F64"/></radialGradient><radialGradient id="A" cx="7.73%" cy="3.866%" r="138.874%" fx="7.73%" fy="3.866%" gradientTransform="scale(.24625 1) rotate(50.01 .196 .292)"><stop offset="0%" stop-color="#25C2F2" stop-opacity=".626"/><stop offset="100%" stop-color="#293F64"/></radialGradient><radialGradient id="h" cx="37.435%" cy="76.012%" r="54.774%" fx="37.435%" fy="76.012%" gradientTransform="matrix(.2294 -.95736 .76021 .2889 -.29 .9)"><stop offset="0%" stop-color="#25C2F2" stop-opacity=".626"/><stop offset="100%" stop-color="#293F64"/></radialGradient><radialGradient id="aj" cx="7.73%" cy="3.866%" r="121.369%" fx="7.73%" fy="3.866%" gradientTransform="matrix(.18108 .87666 -.32996 .48111 .076 -.047)"><stop offset="0%" stop-color="#00C3FF" stop-opacity=".626"/><stop offset="100%" stop-color="#293F64"/></radialGradient><radialGradient id="s" cx="52.436%" cy="42.955%" r="36.114%" fx="52.436%" fy="42.955%" gradientTransform="matrix(-1 0 0 -.21136 1.049 .52)"><stop offset="0%" stop-color="#172743"/><stop offset="100%" stop-opacity="0"/></radialGradient><radialGradient id="V" cx="0%" cy="100%" r="334.32%" fx="0%" fy="100%" gradientTransform="scale(.14534 1) rotate(-47.088 0 1)"><stop offset="0%" stop-color="#08C4FB" stop-opacity=".984"/><stop offset="100%" stop-color="#637BFF" stop-opacity="0"/></radialGradient><radialGradient id="at" fx="50%" fy="50%" gradientTransform="matrix(0 1 -.81696 0 .908 0)"><stop offset="0%" stop-color="#80E4FF"/><stop offset="100%" stop-color="#637BFF" stop-opacity="0"/></radialGradient><radialGradient id="ag" cx="25.115%" cy="73.739%" r="74.979%" fx="25.115%" fy="73.739%" gradientTransform="matrix(1 0 0 .81978 0 .133)"><stop offset="0%" stop-color="#47699D"/><stop offset="100%" stop-color="#1B283E"/></radialGradient><radialGradient id="ae" cx="52.101%" cy="30.594%" r="544.263%" fx="52.101%" fy="30.594%" gradientTransform="matrix(-.08965 0 0 -.25522 .568 .384)"><stop offset="0%"/><stop offset="100%" stop-opacity=".002"/></radialGradient><radialGradient id="D" r="68.353%" fx="50%" fy="50%"><stop offset="0%" stop-color="#21C8F6"/><stop offset="100%" stop-color="#4BDEFF"/></radialGradient><radialGradient id="S" cx="0%" cy="100%" r="379.12%" fx="0%" fy="100%" gradientTransform="matrix(.08726 -.64586 .07382 .76346 -.074 .237)"><stop offset="0%" stop-color="#08C4FB" stop-opacity=".984"/><stop offset="100%" stop-color="#637BFF" stop-opacity="0"/></radialGradient><ellipse id="W" cx="26.516" cy="26.4" rx="26.516" ry="26.4"/><ellipse id="aa" cx="26.516" cy="26.4" rx="26.516" ry="26.4"/></defs><g fill="none" fill-rule="evenodd" transform="translate(28 42)"><ellipse cx="190.5" cy="212" fill="#9EE1FF" filter="url(#a)" opacity=".701" rx="190.5" ry="167" style="mix-blend-mode:overlay"/><g fill-rule="nonzero" stroke-width=".736"><path stroke="url(#b)" d="M81.735 3.603c0-.376-.14-.71-.42-.999L79.219.434C78.938.145 78.617 0 78.253 0c-.363 0-.685.145-.964.434L57.742 20.66a1.394 1.394 0 000 1.996L77.288 42.88c.28.29.601.433.965.433s.686-.144.965-.433l2.098-2.17a1.396 1.396 0 000-1.996L64.83 21.657 81.316 4.601c.28-.29.42-.622.42-.998z" transform="rotate(-161 214.127 49.188)"/><path stroke="url(#c)" d="M24.413 3.603c0-.376-.14-.71-.42-.999L21.895.434c-.28-.289-.6-.434-.964-.434s-.686.145-.965.434L.42 20.66a1.394 1.394 0 000 1.996L19.966 42.88c.28.29.6.433.964.433.365 0 .686-.144.965-.433l2.098-2.17a1.396 1.396 0 000-1.996L7.508 21.657 23.993 4.601c.28-.29.42-.622.42-.998z" transform="rotate(19 -94.993 885.743)"/><path stroke="url(#d)" d="M44.993 6.582l-1.885-.51a.87.87 0 00-.713.07.946.946 0 00-.467.57l-11.12 37.811a.856.856 0 00.08.72.99.99 0 00.594.457l1.884.51a.87.87 0 00.713-.07.947.947 0 00.467-.569L45.666 7.76a.856.856 0 00-.08-.72.994.994 0 00-.593-.457z" opacity=".238" transform="rotate(27 -13.334 638.976)"/></g><g transform="rotate(19 -137.642 782.217)"><path fill="url(#e)" d="M131.4 40.897c0 .887-4.424.755-5.648.702.19.196.376.392.559.586 3.051 2.16 13.394 9.852 18.437 18.28l.332.344-8.193-2.35-.008.445c.73 2.004 3.466 9.656 4.89 15.865-.719 1.493-3.93-.02-5.644-.965a217.75 217.75 0 01-.245 2.919c1.184 5.306 3.23 15.633 3.463 24.594-.993.686-5.627-5.15-5.627-5.15s.662 9.612.662 12.702c-.504-.261-2.327-3.069-3.169-4.395-.22.782-.448 1.552-.686 2.309-.172 22.124-117.759 16.88-117.596-5.66a113.06 113.06 0 01-.699-3.06 1712 1712 0 01-3.622 7.03c-2.54-9.479-.6-23.4.442-29.373a273.66 273.66 0 01-.134-1.62c-1.12 1.936-3.315 5.067-4.28 1.813 0-8.239 3.47-19.553 3.47-19.553S2.649 63.211 0 61.152C3.37 54.16 12.518 47.17 17.256 43.877c.49-.547.998-1.103 1.531-1.669-2.012.338-5.452.64-5.217-1.311 4.47-3.818 13.537-7.854 17.075-9.35.264-.202.533-.404.802-.605H21.183c4.964-5.837 27.7-10.2 27.7-10.2s2.775-7.634 6.44-10.387c8.592-6.458 26.38-5.822 34.484 0 3.72 2.672 6.439 10.388 6.439 10.388s17.942 3.676 24.23 8.825c0 .897-5.763 1.013-7.26 1.028.184.134.365.268.543.402 3.268 1.471 14.538 6.682 17.64 9.9z"/><path fill="url(#f)" stroke="url(#g)" stroke-width="1.106" d="M130.885 40.733a1.44 1.44 0 01-.33.12c.163.146.312.29.446.428l-.155-.384c0-.09.033-.15.05-.169zM143.71 59.84c.195.303.384.606.565.91l.076.1.332.343.398-.384.152-.532-1.523-.437zm-2.532 14.82l.054.233.04-.364a.46.46 0 01-.094.131zm-2.408 25.98l.021.691.238-.47c.066-.045.091-.045.05-.06a1.638 1.638 0 01-.31-.16zm-4.975 6.713c.02.614.031 1.124.031 1.516l.807-.49c-.113-.06-.419-.441-.838-1.026zm-124.998-3.83l-.681 1.315 1.025.112c-.124-.464-.239-.94-.344-1.427zm-3.61-27.691a8.054 8.054 0 01-.022-.076l.023.157v-.081zM.735 60.921a1.23 1.23 0 01-.395-.206l.159.677c.076-.157.154-.314.236-.471zM14.12 41.158a.761.761 0 010-.195l-.19.354.19-.16zm8.423-10.77h-1.36l.422.912c.258-.304.572-.608.938-.911zM96.208 21.3l.075-.005.301-.989-.338.438-.111.541.073.015zm23.325 8.24c.21.153.407.305.594.457l-.203-.428c0-.137.043-.187.034-.182a2.03 2.03 0 01-.425.154z"/><path fill="url(#h)" d="M131.4 40.897c0 .887-4.424.755-5.648.702.19.196.376.392.559.586 3.051 2.16 13.394 9.852 18.437 18.28l.332.344-8.193-2.35-.008.445c.73 2.004 3.466 9.656 4.89 15.865-.719 1.493-3.93-.02-5.644-.965a217.75 217.75 0 01-.245 2.919c1.184 5.306 3.23 15.633 3.463 24.594-.993.686-5.627-5.15-5.627-5.15s.662 9.612.662 12.702c-.504-.261-2.327-3.069-3.169-4.395-.22.782-.448 1.552-.686 2.309-.172 22.124-117.759 16.88-117.596-5.66a113.06 113.06 0 01-.699-3.06 1712 1712 0 01-3.622 7.03c-2.54-9.479-.6-23.4.442-29.373a273.66 273.66 0 01-.134-1.62c-1.12 1.936-3.315 5.067-4.28 1.813 0-8.239 3.47-19.553 3.47-19.553S2.649 63.211 0 61.152C3.37 54.16 12.518 47.17 17.256 43.877c.49-.547.998-1.103 1.531-1.669-2.012.338-5.452.64-5.217-1.311 4.47-3.818 13.537-7.854 17.075-9.35.264-.202.533-.404.802-.605H21.183c4.964-5.837 27.7-10.2 27.7-10.2s2.775-7.634 6.44-10.387c8.592-6.458 26.38-5.822 34.484 0 3.72 2.672 6.439 10.388 6.439 10.388s17.942 3.676 24.23 8.825c0 .897-5.763 1.013-7.26 1.028.184.134.365.268.543.402 3.268 1.471 14.538 6.682 17.64 9.9z" opacity=".705"/><path fill="#24385A" stroke="url(#i)" stroke-width=".553" d="M85.925 33.706c0 7.824-6.115 14.167-13.659 14.167-7.544 0-13.659-6.343-13.659-14.167s6.115-14.167 13.66-14.167c7.543 0 13.658 6.343 13.658 14.167"/><path fill="#000" fill-opacity=".152" stroke="url(#j)" stroke-width=".669" d="M85.925 33.706c0 7.824-6.115 14.167-13.659 14.167-7.544 0-13.659-6.343-13.659-14.167s6.115-14.167 13.66-14.167c7.543 0 13.658 6.343 13.658 14.167"/><path fill="#76E2FF" d="M69.836 26.694s-.558.064-1.357.317c-1.748.552-4.654 2.003-5.42 5.647a9.453 9.453 0 00.013 1.605c.169 1.685 1.02 3.13 2.257 4.26 1.658 1.514 4.01 2.464 6.348 2.665 3.612.312 7.192-1.16 8.14-5.09.097-.404.173-.792.24-1.171.212-2.221-.146-3.997-.945-5.338a5.872 5.872 0 00-.88-1.138c-1.345-1.351-3.33-2.016-5.695-2.016-.855 0-1.759.087-2.701.259"/><path fill="url(#k)" d="M71.34 31.135s-1.24.143-2.063 1.078c-.444.504-.768 1.239-.71 2.307.037.72.388 1.337.908 1.814.444.404 1.01.708 1.617.888 1.258.374 2.684.22 3.526-.659a2.56 2.56 0 00.637-1.197 5.984 5.984 0 00.185-1.554c-.023-.86-.294-1.517-.75-1.975-.493-.496-1.2-.76-2.044-.8a5.99 5.99 0 00-1.306.098"/><path fill="#ECECEC" d="M74.969 34.36c0 .57-.445 1.03-.993 1.03-.549 0-.993-.46-.993-1.03 0-.568.444-1.03.993-1.03.548 0 .993.462.993 1.03"/><path fill="#FFF" fill-opacity=".2" d="M110.949 0c1.205 0 2.276.602 2.948 1.532a3.58 3.58 0 00-2.211-.766C109.65.766 108 2.481 108 4.597c0 .863.274 1.66.738 2.3a3.88 3.88 0 01-1.475-3.066c0-2.116 1.65-3.831 3.686-3.831z"/><path fill="#1C2737" fill-rule="nonzero" d="M86.556 75.854c-2.38 1-5.079.83-7.404-.464-.995-.553-1.407-1.854-.92-2.904.485-1.05 1.685-1.453 2.68-.9 1.284.715 2.773.808 4.085.257 1.312-.55 2.32-1.693 2.766-3.134.345-1.116 1.478-1.693 2.53-1.288 1.052.405 1.624 1.638 1.279 2.754-.808 2.61-2.636 4.68-5.016 5.679z"/><mask id="m" fill="#fff"><use xlink:href="#l"/></mask><path d="M60.772 55.267s-1.664-2.538-3.335-3.242c-.503-.211-1.006-.258-1.464-.02-.615.32-.754 1.082-.653 1.984.226 2.01 1.646 4.71 1.646 4.71.28-.26.577-.5.886-.723 2.542-1.836 5.882-2.471 7.091-2.65.294-.043.463-.06.463-.06s-.163-.506-.518-1.144a6.674 6.674 0 00-.803-1.158c-.398-.455-.892-.87-1.493-1.13a1.242 1.242 0 00-.49-.114c-1.467 0-1.33 3.547-1.33 3.547" mask="url(#m)"/><mask id="o" fill="#fff"><use xlink:href="#n"/></mask><path d="M85.966 52.95c-.616.217-1.136.598-1.563 1.023-.292.292-.54.605-.745.9-.484.701-.723 1.305-.723 1.305s.167.028.458.092c1.116.245 4.06 1.02 6.411 2.757a9.9 9.9 0 011.328 1.168s1.687-2.747 1.977-4.756c.098-.678.036-1.273-.303-1.649-.613-.68-1.621-.396-2.306-.016-1.515.842-2.942 2.73-2.942 2.73s.38-3.635-1.162-3.635a1.3 1.3 0 00-.43.081" mask="url(#o)"/></g><path stroke="url(#p)" stroke-width="4.976" d="M25.174 7.372C8.489 8.446-2.03 8.446.38 44.133" transform="matrix(0 1 1 0 52 156.362)"/><g transform="matrix(1 0 0 -1 52.46 188.447)"><rect width="7.899" height="8.293" x="2.962" y="2.764" fill="#1B283E" rx="3.949"/><rect width="13.822" height="5.529" fill="url(#q)" rx="2.764"/></g><path fill="#1B283E" d="M106.415 145.407l154.125-2.69c9.329-.163 17.023 7.267 17.186 16.596.016.89-.04 1.78-.164 2.662l-10.876 76.835c-2.328 16.443-16.26 28.757-32.864 29.047l-96.337 1.681c-16.604.29-30.958-11.53-33.858-27.882l-13.55-76.408c-1.63-9.187 4.497-17.955 13.683-19.584a16.893 16.893 0 012.655-.257z"/><path fill="url(#r)" d="M21.467 33.344h164.689c9.33 0 16.894 7.564 16.894 16.894 0 .983-.086 1.964-.257 2.932l-12.605 71.534c-2.846 16.149-16.876 27.923-33.274 27.923H50.71c-16.398 0-30.429-11.774-33.275-27.923L4.83 53.17C3.211 43.98 9.347 35.22 18.536 33.6c.968-.17 1.949-.256 2.931-.256z" transform="rotate(-1 6025.496 -4471.691)"/><path fill="url(#r)" d="M21.467 33.344h164.689c9.33 0 16.894 7.564 16.894 16.894 0 .983-.086 1.964-.257 2.932l-12.605 71.534c-2.846 16.149-16.876 27.923-33.274 27.923H50.71c-16.398 0-30.429-11.774-33.275-27.923L4.83 53.17C3.211 43.98 9.347 35.22 18.536 33.6c.968-.17 1.949-.256 2.931-.256z" transform="rotate(-1 6025.496 -4471.691)"/><g transform="translate(265.83 162.387)"><circle cx="12.901" cy="12.901" r="11.058" fill="url(#s)" filter="url(#t)" opacity=".899" transform="rotate(-81 12.901 12.901)"/><path stroke="url(#u)" stroke-width="4.976" d="M10.136 6.45C-6.548 7.524 3.66 23.136 1.66 37.367c-1.773 12.612 6.586 20.464 16.647 20.35" transform="scale(-1 1) rotate(-8 41.01 230.523)"/><g transform="scale(-1 1) rotate(82 -9.309 -4.566)"><rect width="7.899" height="8.293" x="2.962" y="2.764" fill="#1B283E" rx="3.949"/><rect width="13.822" height="5.529" fill="url(#q)" rx="2.764"/></g></g><path fill="#1B283E" d="M135.636 197.277l95.866-1.673a2.567 2.567 0 01.09 5.134l-48.696.85-47.17.823a2.567 2.567 0 01-.09-5.134z"/><g transform="rotate(-1 6024.897 -4458.923)"><use fill="#000" filter="url(#v)" xlink:href="#w"/><use fill="url(#x)" xlink:href="#w"/></g><path fill="#1B283E" d="M137.308 216.05l95.866-1.672a2.567 2.567 0 11.09 5.133l-48.696.85-47.17.824a2.567 2.567 0 01-.09-5.134zm.164 9.4l95.867-1.674a2.567 2.567 0 01.09 5.134l-48.697.85-47.17.824a2.567 2.567 0 01-.09-5.134z"/><path fill="url(#y)" d="M48.99 34.674h110.58c9.33 0 16.894 7.564 16.894 16.894 0 1.73-.266 3.449-.788 5.098l-1.643 5.19a33.787 33.787 0 01-32.211 23.59H66.739a33.787 33.787 0 01-32.211-23.59l-1.643-5.19c-2.816-8.895 2.112-18.388 11.007-21.204a16.893 16.893 0 015.099-.788z" transform="rotate(-1 6025.965 -4504.617)"/><path fill="url(#z)" d="M22.277 34.68h163.278c9.33 0 16.894 7.564 16.894 16.894 0 2.313-.475 4.601-1.396 6.723l-2.956 6.815a33.787 33.787 0 01-30.996 20.34H40.73a33.787 33.787 0 01-30.996-20.34L6.78 58.297c-3.714-8.56.215-18.508 8.774-22.221a16.893 16.893 0 016.724-1.396z" transform="rotate(-1 6025.6 -4504.61)"/><path fill="url(#A)" d="M22.277 34.68h163.278c9.33 0 16.894 7.564 16.894 16.894 0 2.313-.475 4.601-1.396 6.723l-2.956 6.815a33.787 33.787 0 01-30.996 20.34H40.73a33.787 33.787 0 01-30.996-20.34L6.78 58.297c-3.714-8.56.215-18.508 8.774-22.221a16.893 16.893 0 016.724-1.396z" opacity=".705" transform="rotate(-1 6025.6 -4504.61)"/><path fill="#1B283E" d="M282.317 152.517a16.893 16.893 0 01-1.277 6.747l-2.838 6.866a33.787 33.787 0 01-30.636 20.878l-126.35 2.205a33.787 33.787 0 01-31.347-19.796l-3.075-6.763a16.83 16.83 0 01-.744-12.038 14.584 14.584 0 001.472 9.766l1.629 3.028a33.787 33.787 0 0030.344 17.775l129.51-2.26a33.787 33.787 0 0029.706-18.824l1.522-3.083a14.646 14.646 0 001.51-6.739 14.703 14.703 0 00-.381-3.09c.588 1.67.923 3.46.955 5.328z" opacity=".504"/><path fill="#1B283E" d="M162.194 144.433l45.901-.8a16.893 16.893 0 0111.184 3.975l7.623 6.427a6.12 6.12 0 01-3.838 10.798l-75.09 1.31a6.12 6.12 0 01-4.213-10.657l7.394-6.69a16.893 16.893 0 0111.039-4.363z"/><g transform="rotate(-1 6038.738 -8983.96)"><path fill="url(#B)" d="M13.307.017h28.527c7.257 0 13.14 5.883 13.14 13.14v32.065a7.508 7.508 0 01-7.508 7.508H7.676a7.508 7.508 0 01-7.508-7.508V13.156C.168 5.9 6.05.016 13.307.016z"/><circle cx="26.55" cy="27.501" r="19.352" fill="#1B283E"/></g><g transform="translate(164.004 110.322)"><circle cx="20.734" cy="20.734" r="20.734" fill="#328AF1" filter="url(#C)" opacity=".842"/><circle cx="21.176" cy="21.587" r="11.058" fill="url(#D)" transform="scale(1 -1) rotate(4 639.351 0)"/><g fill="#FFF" style="mix-blend-mode:soft-light"><path d="M17.307 19.096l1.757 1.757a1.005 1.005 0 11-1.421 1.422l-1.757-1.757a1.005 1.005 0 111.421-1.422zm3.892 3.892l3.835 3.836a1.005 1.005 0 11-1.421 1.421l-3.836-3.836a1.005 1.005 0 011.422-1.421z"/><path d="M16.315 18.84l10.83-3.043a.96.96 0 011.19.687 1.009 1.009 0 01-.704 1.22L16.8 20.747a.96.96 0 01-1.19-.687 1.009 1.009 0 01.704-1.22z"/><path d="M23.389 27.335l3.043-10.83a1.01 1.01 0 011.22-.704.96.96 0 01.688 1.19l-3.044 10.83a1.01 1.01 0 01-1.22.705.96.96 0 01-.687-1.19zm-.217-4.979l-4.026 4.027A.977.977 0 1117.764 25l4.026-4.026a.977.977 0 111.382 1.381zm-5.898 5.899l-.66.66a.977.977 0 01-1.382-1.382l.66-.66a.977.977 0 111.382 1.382z"/></g><path fill="#FFF" fill-opacity=".547" d="M12.582 22.517a9.2 9.2 0 004.438 6.948 9.215 9.215 0 015.789-15.435 9.174 9.174 0 015.694 1.256 9.215 9.215 0 00-15.92 7.231z" opacity=".58" style="mix-blend-mode:lighten"/></g><g transform="rotate(-9 192.203 -618.34)"><path fill="url(#E)" d="M40.654 0h59.71c15.006 0 27.17 12.164 27.17 27.17v62.856c0 18.006-14.597 32.603-32.603 32.603H46.088c-18.006 0-32.603-14.597-32.603-32.603V27.17C13.485 12.164 25.649 0 40.655 0z"/><path fill="url(#F)" d="M40.654 0h59.71c15.006 0 27.17 12.164 27.17 27.17v62.856c0 18.006-14.597 32.603-32.603 32.603H46.088c-18.006 0-32.603-14.597-32.603-32.603V27.17C13.485 12.164 25.649 0 40.655 0z" opacity=".705"/><ellipse cx="37.225" cy="10.491" fill="url(#G)" rx="3.592" ry="3.649"/><path fill="url(#H)" d="M15.723 76.247c0 18.006 14.597 32.603 32.604 32.603h44.49c18.006 0 32.603-14.597 32.603-32.603v14.737c0 18.006-14.597 32.603-32.604 32.603h-44.49c-18.006 0-32.603-14.597-32.603-32.603z" opacity=".405"/><g transform="translate(24.678 18.246)"><use fill="#1B283E" xlink:href="#I"/><use fill="url(#J)" opacity=".705" xlink:href="#K"/><mask id="O" fill="#fff"><use xlink:href="#L"/></mask><path stroke="url(#M)" stroke-width="1.935" d="M12.68.968C6.21.968.967 6.21.967 12.679v53.25a11.71 11.71 0 007.5 10.928c8.967 3.455 22.097 5.193 39.37 5.193 16.285 0 28.373-1.545 36.236-4.61a11.712 11.712 0 007.457-10.912V12.679C91.531 6.211 86.288.968 79.82.968H12.68z"/><ellipse cx="26.04" cy="15.509" fill="url(#N)" mask="url(#O)" rx="51.183" ry="52"/></g><use fill="#000" filter="url(#P)" xlink:href="#Q"/><use fill="url(#R)" xlink:href="#Q"/><path fill="url(#S)" d="M44.27 46.333h48.154a3.107 3.107 0 110 6.215H44.27a3.107 3.107 0 110-6.215z"/><use fill="#000" filter="url(#T)" xlink:href="#U"/><use fill="url(#R)" xlink:href="#U"/><path fill="url(#V)" d="M44.27 63.606h36.543a3.107 3.107 0 110 6.215H44.27a3.107 3.107 0 110-6.215z"/><path d="M82.723 12.954h-2.885c-.79 0-1.43-.653-1.43-1.46 0-.805.64-1.459 1.43-1.459h2.885c.79 0 1.43.654 1.43 1.46 0 .806-.64 1.46-1.43 1.46zm5.388-4.014h-2.886c-.79 0-1.43-.653-1.43-1.46 0-.805.64-1.459 1.43-1.459h2.886c.79 0 1.43.654 1.43 1.46 0 .806-.64 1.46-1.43 1.46zm14.724 4.014H87.03a1.45 1.45 0 01-1.44-1.46 1.45 1.45 0 011.44-1.459h15.797c.795 0 1.44.654 1.44 1.46a1.45 1.45 0 01-1.44 1.46h.007zm5.324-4.014H92.475c-.827 0-1.497-.653-1.497-1.46 0-.805.67-1.459 1.497-1.459h15.684c.826 0 1.496.654 1.496 1.46 0 .806-.67 1.46-1.496 1.46z" fill="#243552"/><g transform="rotate(-1 1638.684 -543.784)"><mask id="Z" fill="#fff"><use xlink:href="#W"/></mask><use fill="url(#X)" opacity=".398" xlink:href="#W"/><path fill="url(#Y)" d="M25.232 2.829L5.146 41.1l15.928 10.072L41.375 8.2z" mask="url(#Z)" opacity=".309"/></g><g transform="rotate(-1 1604.334 -4479.898)"><mask id="ab" fill="#fff"><use xlink:href="#aa"/></mask><use fill="url(#X)" opacity=".398" xlink:href="#aa"/><path fill="url(#Y)" d="M25.093 2.829L5.006 41.1l15.929 10.072L41.236 8.2z" mask="url(#ab)" opacity=".309"/></g><path fill="#1B283E" stroke="#1B283E" stroke-width="1.877" d="M105.267 78.22c-13.548.237-24.72-10.478-24.955-23.931-.235-13.453 10.557-24.551 24.105-24.787 13.548-.237 24.721 10.477 24.956 23.93.235 13.454-10.558 24.552-24.106 24.788zM36.77 79.416c-13.548.236-24.72-10.478-24.955-23.932-.235-13.453 10.557-24.55 24.105-24.787 13.548-.236 24.72 10.478 24.955 23.931.235 13.453-10.556 24.551-24.105 24.788zm93.738-40.949c-2.09-2.312-6.034-5.286-8.394-6.984a28.333 28.333 0 00-1.874-1.322l-.042-.03.001.004a28.403 28.403 0 00-15.848-4.47 28.41 28.41 0 00-19.968 8.645c-2.449 2.353-4.55 4.919-6.725 7.435-2.756 3.189-4.445 1.677-7.256 1.726-2.81.05-4.446 1.619-7.31-1.472-2.262-2.439-4.453-4.93-6.982-7.196-5.23-5.033-12.484-8.078-20.344-7.941-5.834.102-11.57 1.952-15.769 5.022v-.003l.045.029c-.631.437-1.196.901-1.787 1.386-2.3 1.78-6.238 4.891-8.246 7.274C7.024 44.112.375 44.46.375 44.46L.5 51.67s3.978-.303 5.292 1.187c.776.878 1.672 5.159 3.09 9.63.436 1.594 1.044 3.127 1.741 4.594.653 1.458 1.41 2.807 2.267 3.91l.009-.007a28.427 28.427 0 0023.932 12.268 28.411 28.411 0 0025.58-17.02l.021-.028.064-.11c1.979-3.47 3.867-12.915 4.768-14.427.91-1.528 3.25-1.685 3.25-1.685s2.344.075 3.307 1.57c.953 1.48 3.17 10.853 5.267 14.253l.068.108.022.027a28.409 28.409 0 0026.155 16.117A28.418 28.418 0 00128.82 68.96l.002.008c.818-1.132 1.512-2.506 2.113-3.987a27.84 27.84 0 001.552-4.652c1.26-4.518 1.938-8.826 2.682-9.73 1.262-1.535 5.12-1.37 5.12-1.37l-.125-7.209s-6.551-.118-9.657-3.553z"/><path fill="url(#ac)" stroke="url(#ad)" stroke-width="1.877" d="M104.288 52.564c-13.55 0-24.535-10.908-24.535-24.364 0-13.455 10.984-24.362 24.535-24.362 13.55 0 24.534 10.907 24.534 24.362 0 13.456-10.985 24.364-24.534 24.364zm-68.51 0c-13.55 0-24.533-10.908-24.533-24.364 0-13.455 10.984-24.362 24.534-24.362 13.55 0 24.534 10.907 24.534 24.362 0 13.456-10.984 24.364-24.534 24.364zm94.44-39.307c-2.05-2.348-5.941-5.39-8.271-7.13a28.69 28.69 0 00-1.852-1.354l-.04-.03v.004A28.403 28.403 0 00104.288 0a28.41 28.41 0 00-20.116 8.295c-2.49 2.31-4.636 4.84-6.855 7.317-2.81 3.14-4.473 1.6-7.284 1.6-2.81 0-4.474 1.54-7.284-1.6-2.219-2.478-4.365-5.007-6.855-7.317C50.752 3.172 43.553 0 35.692 0 29.858 0 24.09 1.75 19.838 4.747v-.004l.044.03c-.638.426-1.211.88-1.81 1.355-2.331 1.739-6.323 4.781-8.373 7.13C6.655 16.745 0 16.977 0 16.977v7.21s3.983-.232 5.27 1.28c.762.891 1.583 5.187 2.922 9.682.409 1.602.99 3.145 1.661 4.624.628 1.47 1.361 2.832 2.199 3.95l.008-.008A28.427 28.427 0 0035.775 56.4a28.41 28.41 0 0025.872-16.571l.023-.028.066-.109c2.038-3.435 4.091-12.845 5.018-14.342.937-1.512 3.28-1.628 3.28-1.628s2.341.116 3.278 1.628c.927 1.497 2.98 10.907 5.018 14.342l.066.11.021.027a28.409 28.409 0 0025.87 16.57c9.911 0 18.63-5.043 23.711-12.684l.002.008c.838-1.118 1.556-2.48 2.183-3.95a27.84 27.84 0 001.633-4.624c1.338-4.495 2.091-8.79 2.851-9.682 1.289-1.512 5.143-1.28 5.143-1.28v-7.21s-6.548-.232-9.593-3.72z" opacity=".335" transform="rotate(-1 1574.751 9.253)"/></g><ellipse cx="205.034" cy="358.924" fill="url(#ae)" filter="url(#af)" opacity=".668" rx="200.426" ry="17.969"/><g transform="translate(0 187.986)"><path fill="#1B283E" d="M51.613 9.656h321.022c7.51 0 14.341 4.286 15.256 9.573l36.053 136.458c.915 5.287-8.024 18.114-25.112 18.114H25.415c-17.058 0-26.027-12.827-25.112-18.114L36.356 19.23c.915-5.287 7.746-9.573 15.257-9.573z"/><path fill="url(#ag)" d="M25.926 147.372l-.51 26.43c-17.059 0-26.028-12.828-25.113-18.115l12.78-11.48c.915-5.287 5.333 3.165 12.843 3.165z"/><path fill="url(#ag)" d="M423.774 147.372l-.51 26.43c-17.058 0-26.028-12.828-25.112-18.115l12.78-11.48c.915-5.287 5.332 3.165 12.842 3.165z" transform="matrix(-1 0 0 1 821.862 0)"/><path fill="url(#ah)" d="M42.936 0h338.375c7.917 0 15.117 4.286 16.081 9.573l26.46 145c.964 5.287-5.719 9.573-14.928 9.573h-393.6c-9.21 0-15.893-4.286-14.928-9.573l26.46-145C27.82 4.286 35.02 0 42.935 0z"/><path fill="url(#ai)" d="M49.906 3.219h324.435c7.896 0 15.025 4.231 15.921 9.452L413 145.038c.897 5.22-5.72 9.452-14.779 9.452H26.026c-9.059 0-15.675-4.232-14.779-9.452L33.985 12.67c.897-5.22 8.025-9.452 15.921-9.452z"/><path fill="url(#aj)" d="M49.906 3.219h324.435c7.896 0 15.025 4.231 15.921 9.452L413 145.038c.897 5.22-5.72 9.452-14.779 9.452H26.026c-9.059 0-15.675-4.232-14.779-9.452L33.985 12.67c.897-5.22 8.025-9.452 15.921-9.452z" opacity=".705"/><g style="mix-blend-mode:overlay"><use fill="#000" filter="url(#ak)" xlink:href="#al"/><use stroke="url(#am)" stroke-width="1.843" xlink:href="#al"/></g><g style="mix-blend-mode:overlay"><use fill="#000" filter="url(#an)" xlink:href="#ao"/><use stroke="url(#ap)" stroke-width="1.843" xlink:href="#ao"/></g><g style="mix-blend-mode:overlay"><use fill="#000" filter="url(#aq)" xlink:href="#ar"/><use stroke="url(#as)" stroke-width="1.843" xlink:href="#ar"/></g><ellipse cx="235.443" cy="80.171" fill="url(#at)" rx="16.126" ry="9.215"/><g style="mix-blend-mode:overlay"><use fill="#000" filter="url(#au)" xlink:href="#av"/><use stroke="url(#aw)" stroke-width="1.843" xlink:href="#av"/></g></g><ellipse cx="212.867" cy="256.177" fill="#0091FF" filter="url(#ax)" opacity=".699" rx="97.679" ry="30.41"/><circle cx="213.327" cy="201.348" r="81" fill="#0091FF" filter="url(#ay)" opacity=".548" style="mix-blend-mode:overlay"/><g transform="translate(141.911 156.655)"><use fill="#000" filter="url(#az)" xlink:href="#aA"/><use stroke="#32C5FF" stroke-width="2.58" xlink:href="#aA"/></g><g transform="translate(141.911 156.655)"><use fill="#000" filter="url(#aB)" xlink:href="#aC"/><use stroke="#32C5FF" stroke-width="2.58" xlink:href="#aC"/></g><g transform="translate(141.911 156.655)"><use fill="#000" filter="url(#aD)" xlink:href="#aE"/><use stroke="#32C5FF" stroke-width="2.58" xlink:href="#aE"/></g><g transform="translate(141.911 156.655)"><use fill="#000" filter="url(#aF)" xlink:href="#aG"/><use stroke="#32C5FF" stroke-width="2.58" xlink:href="#aG"/></g><g transform="translate(141.911 156.655)"><use fill="#000" filter="url(#aH)" xlink:href="#aI"/><use fill="#D8D8D8" fill-opacity="0" stroke="#32C5FF" stroke-width="2.58" xlink:href="#aI"/></g></g></svg>